<svg width="400" height="400" viewBox="0 0 200 200" fill="none" xmlns="http://www.w3.org/2000/svg">
<rect x="0.5" y="0.5" width="199" height="199" fill="white"/>
<path d="M71.7324 20.8809C71.4434 21.2949 71.0391 21.6055 70.5195 21.8125C70.0039 22.0156 69.4023 22.1172 68.7148 22.1172C68.0195 22.1172 67.4023 21.9551 66.8633 21.6309C66.3242 21.3027 65.9062 20.8379 65.6094 20.2363C65.3164 19.6348 65.166 18.9375 65.1582 18.1445V17.4004C65.1582 16.1152 65.457 15.1191 66.0547 14.4121C66.6562 13.7051 67.5 13.3516 68.5859 13.3516C69.4766 13.3516 70.1934 13.5801 70.7363 14.0371C71.2793 14.4902 71.6113 15.1348 71.7324 15.9707H70.6074C70.3965 14.8418 69.7246 14.2773 68.5918 14.2773C67.8379 14.2773 67.2656 14.543 66.875 15.0742C66.4883 15.6016 66.293 16.3672 66.2891 17.3711V18.0684C66.2891 19.0254 66.5078 19.7871 66.9453 20.3535C67.3828 20.916 67.9746 21.1973 68.7207 21.1973C69.1426 21.1973 69.5117 21.1504 69.8281 21.0566C70.1445 20.9629 70.4062 20.8047 70.6133 20.582V18.666H68.6387V17.752H71.7324V20.8809ZM75.0664 13.4688L77.8555 20.4297L80.6445 13.4688H82.1035V22H80.9785V18.6777L81.084 15.0918L78.2832 22H77.4219L74.627 15.1094L74.7383 18.6777V22H73.6133V13.4688H75.0664ZM85.2207 21.0801H89.2637V22H84.0898V13.4688H85.2207V21.0801Z" fill="#192B4D"/>
<path d="M64.8848 73.1973C63.9199 72.9199 63.2168 72.5801 62.7754 72.1777C62.3379 71.7715 62.1191 71.2715 62.1191 70.6777C62.1191 70.0059 62.3867 69.4512 62.9219 69.0137C63.4609 68.5723 64.1602 68.3516 65.0195 68.3516C65.6055 68.3516 66.127 68.4648 66.584 68.6914C67.0449 68.918 67.4004 69.2305 67.6504 69.6289C67.9043 70.0273 68.0312 70.4629 68.0312 70.9355H66.9004C66.9004 70.4199 66.7363 70.0156 66.4082 69.7227C66.0801 69.4258 65.6172 69.2773 65.0195 69.2773C64.4648 69.2773 64.0312 69.4004 63.7188 69.6465C63.4102 69.8887 63.2559 70.2266 63.2559 70.6602C63.2559 71.0078 63.4023 71.3027 63.6953 71.5449C63.9922 71.7832 64.4941 72.002 65.2012 72.2012C65.9121 72.4004 66.4668 72.6211 66.8652 72.8633C67.2676 73.1016 67.5645 73.3809 67.7559 73.7012C67.9512 74.0215 68.0488 74.3984 68.0488 74.832C68.0488 75.5234 67.7793 76.0781 67.2402 76.4961C66.7012 76.9102 65.9805 77.1172 65.0781 77.1172C64.4922 77.1172 63.9453 77.0059 63.4375 76.7832C62.9297 76.5566 62.5371 76.248 62.2598 75.8574C61.9863 75.4668 61.8496 75.0234 61.8496 74.5273H62.9805C62.9805 75.043 63.1699 75.4512 63.5488 75.752C63.9316 76.0488 64.4414 76.1973 65.0781 76.1973C65.6719 76.1973 66.127 76.0762 66.4434 75.834C66.7598 75.5918 66.918 75.2617 66.918 74.8438C66.918 74.4258 66.7715 74.1035 66.4785 73.877C66.1855 73.6465 65.6543 73.4199 64.8848 73.1973ZM75.7949 75.8809C75.5059 76.2949 75.1016 76.6055 74.582 76.8125C74.0664 77.0156 73.4648 77.1172 72.7773 77.1172C72.082 77.1172 71.4648 76.9551 70.9258 76.6309C70.3867 76.3027 69.9688 75.8379 69.6719 75.2363C69.3789 74.6348 69.2285 73.9375 69.2207 73.1445V72.4004C69.2207 71.1152 69.5195 70.1191 70.1172 69.4121C70.7188 68.7051 71.5625 68.3516 72.6484 68.3516C73.5391 68.3516 74.2559 68.5801 74.7988 69.0371C75.3418 69.4902 75.6738 70.1348 75.7949 70.9707H74.6699C74.459 69.8418 73.7871 69.2773 72.6543 69.2773C71.9004 69.2773 71.3281 69.543 70.9375 70.0742C70.5508 70.6016 70.3555 71.3672 70.3516 72.3711V73.0684C70.3516 74.0254 70.5703 74.7871 71.0078 75.3535C71.4453 75.916 72.0371 76.1973 72.7832 76.1973C73.2051 76.1973 73.5742 76.1504 73.8906 76.0566C74.207 75.9629 74.4688 75.8047 74.6758 75.582V73.666H72.7012V72.752H75.7949V75.8809ZM79.1289 68.4688L81.918 75.4297L84.707 68.4688H86.166V77H85.041V73.6777L85.1465 70.0918L82.3457 77H81.4844L78.6895 70.1094L78.8008 73.6777V77H77.6758V68.4688H79.1289ZM89.2832 76.0801H93.3262V77H88.1523V68.4688H89.2832V76.0801Z" fill="#192B4D"/>
<path d="M28.8105 132H27.6797V128.057H23.3789V132H22.2539V123.469H23.3789V127.137H27.6797V123.469H28.8105V132ZM36.5273 124.395H33.7852V132H32.666V124.395H29.9297V123.469H36.5273V124.395ZM39.2461 123.469L42.0352 130.43L44.8242 123.469H46.2832V132H45.1582V128.678L45.2637 125.092L42.4629 132H41.6016L38.8066 125.109L38.918 128.678V132H37.793V123.469H39.2461ZM49.4004 131.08H53.4434V132H48.2695V123.469H49.4004V131.08Z" fill="#192B4D"/>
<path d="M107.045 126.738L109.09 123.469H110.414L107.719 127.699L110.479 132H109.143L107.045 128.672L104.936 132H103.605L106.371 127.699L103.67 123.469H104.988L107.045 126.738ZM113.238 123.469L116.027 130.43L118.816 123.469H120.275V132H119.15V128.678L119.256 125.092L116.455 132H115.594L112.799 125.109L112.91 128.678V132H111.785V123.469H113.238ZM123.393 131.08H127.436V132H122.262V123.469H123.393V131.08Z" fill="#192B4D"/>
<path d="M64.2461 187V178.469H66.6543C67.3965 178.469 68.0527 178.633 68.623 178.961C69.1934 179.289 69.6328 179.756 69.9414 180.361C70.2539 180.967 70.4121 181.662 70.416 182.447V182.992C70.416 183.797 70.2598 184.502 69.9473 185.107C69.6387 185.713 69.1953 186.178 68.6172 186.502C68.043 186.826 67.373 186.992 66.6074 187H64.2461ZM65.3711 179.395V186.08H66.5547C67.4219 186.08 68.0957 185.811 68.5762 185.271C69.0605 184.732 69.3027 183.965 69.3027 182.969V182.471C69.3027 181.502 69.0742 180.75 68.6172 180.215C68.1641 179.676 67.5195 179.402 66.6836 179.395H65.3711ZM73.3281 187H72.2031V178.469H73.3281V187ZM81.1094 179.395H78.3672V187H77.248V179.395H74.5117V178.469H81.1094V179.395ZM86.6172 184.773H83.043L82.2402 187H81.0801L84.3379 178.469H85.3223L88.5859 187H87.4316L86.6172 184.773ZM83.3828 183.848H86.2832L84.8301 179.857L83.3828 183.848Z" fill="#192B4D"/>
<path d="M131.367 187V178.469H133.775C134.518 178.469 135.174 178.633 135.744 178.961C136.314 179.289 136.754 179.756 137.062 180.361C137.375 180.967 137.533 181.662 137.537 182.447V182.992C137.537 183.797 137.381 184.502 137.068 185.107C136.76 185.713 136.316 186.178 135.738 186.502C135.164 186.826 134.494 186.992 133.729 187H131.367ZM132.492 179.395V186.08H133.676C134.543 186.08 135.217 185.811 135.697 185.271C136.182 184.732 136.424 183.965 136.424 182.969V182.471C136.424 181.502 136.195 180.75 135.738 180.215C135.285 179.676 134.641 179.402 133.805 179.395H132.492ZM138.785 183.771C138.785 183.15 138.906 182.592 139.148 182.096C139.395 181.6 139.734 181.217 140.168 180.947C140.605 180.678 141.104 180.543 141.662 180.543C142.525 180.543 143.223 180.842 143.754 181.439C144.289 182.037 144.557 182.832 144.557 183.824V183.9C144.557 184.518 144.438 185.072 144.199 185.564C143.965 186.053 143.627 186.434 143.186 186.707C142.748 186.98 142.244 187.117 141.674 187.117C140.814 187.117 140.117 186.818 139.582 186.221C139.051 185.623 138.785 184.832 138.785 183.848V183.771ZM139.875 183.9C139.875 184.604 140.037 185.168 140.361 185.594C140.689 186.02 141.127 186.232 141.674 186.232C142.225 186.232 142.662 186.018 142.986 185.588C143.311 185.154 143.473 184.549 143.473 183.771C143.473 183.076 143.307 182.514 142.975 182.084C142.646 181.65 142.209 181.434 141.662 181.434C141.127 181.434 140.695 181.646 140.367 182.072C140.039 182.498 139.875 183.107 139.875 183.9ZM148.459 186.232C148.846 186.232 149.184 186.115 149.473 185.881C149.762 185.646 149.922 185.354 149.953 185.002H150.979C150.959 185.365 150.834 185.711 150.604 186.039C150.373 186.367 150.064 186.629 149.678 186.824C149.295 187.02 148.889 187.117 148.459 187.117C147.596 187.117 146.908 186.83 146.396 186.256C145.889 185.678 145.635 184.889 145.635 183.889V183.707C145.635 183.09 145.748 182.541 145.975 182.061C146.201 181.58 146.525 181.207 146.947 180.941C147.373 180.676 147.875 180.543 148.453 180.543C149.164 180.543 149.754 180.756 150.223 181.182C150.695 181.607 150.947 182.16 150.979 182.84H149.953C149.922 182.43 149.766 182.094 149.484 181.832C149.207 181.566 148.863 181.434 148.453 181.434C147.902 181.434 147.475 181.633 147.17 182.031C146.869 182.426 146.719 182.998 146.719 183.748V183.953C146.719 184.684 146.869 185.246 147.17 185.641C147.471 186.035 147.9 186.232 148.459 186.232ZM152.367 187V178.469H155.156C156.082 178.469 156.777 178.66 157.242 179.043C157.711 179.426 157.945 179.992 157.945 180.742C157.945 181.141 157.832 181.494 157.605 181.803C157.379 182.107 157.07 182.344 156.68 182.512C157.141 182.641 157.504 182.887 157.77 183.25C158.039 183.609 158.174 184.039 158.174 184.539C158.174 185.305 157.926 185.906 157.43 186.344C156.934 186.781 156.232 187 155.326 187H152.367ZM153.492 183.01V186.08H155.35C155.873 186.08 156.285 185.945 156.586 185.676C156.891 185.402 157.043 185.027 157.043 184.551C157.043 183.523 156.484 183.01 155.367 183.01H153.492ZM153.492 182.107H155.191C155.684 182.107 156.076 181.984 156.369 181.738C156.666 181.492 156.814 181.158 156.814 180.736C156.814 180.268 156.678 179.928 156.404 179.717C156.131 179.502 155.715 179.395 155.156 179.395H153.492V182.107ZM159.387 183.771C159.387 183.15 159.508 182.592 159.75 182.096C159.996 181.6 160.336 181.217 160.77 180.947C161.207 180.678 161.705 180.543 162.264 180.543C163.127 180.543 163.824 180.842 164.355 181.439C164.891 182.037 165.158 182.832 165.158 183.824V183.9C165.158 184.518 165.039 185.072 164.801 185.564C164.566 186.053 164.229 186.434 163.787 186.707C163.35 186.98 162.846 187.117 162.275 187.117C161.416 187.117 160.719 186.818 160.184 186.221C159.652 185.623 159.387 184.832 159.387 183.848V183.771ZM160.477 183.9C160.477 184.604 160.639 185.168 160.963 185.594C161.291 186.02 161.729 186.232 162.275 186.232C162.826 186.232 163.264 186.018 163.588 185.588C163.912 185.154 164.074 184.549 164.074 183.771C164.074 183.076 163.908 182.514 163.576 182.084C163.248 181.65 162.811 181.434 162.264 181.434C161.729 181.434 161.297 181.646 160.969 182.072C160.641 182.498 160.477 183.107 160.477 183.9ZM166.23 183.771C166.23 183.15 166.352 182.592 166.594 182.096C166.84 181.6 167.18 181.217 167.613 180.947C168.051 180.678 168.549 180.543 169.107 180.543C169.971 180.543 170.668 180.842 171.199 181.439C171.734 182.037 172.002 182.832 172.002 183.824V183.9C172.002 184.518 171.883 185.072 171.645 185.564C171.41 186.053 171.072 186.434 170.631 186.707C170.193 186.98 169.689 187.117 169.119 187.117C168.26 187.117 167.562 186.818 167.027 186.221C166.496 185.623 166.23 184.832 166.23 183.848V183.771ZM167.32 183.9C167.32 184.604 167.482 185.168 167.807 185.594C168.135 186.02 168.572 186.232 169.119 186.232C169.67 186.232 170.107 186.018 170.432 185.588C170.756 185.154 170.918 184.549 170.918 183.771C170.918 183.076 170.752 182.514 170.42 182.084C170.092 181.65 169.654 181.434 169.107 181.434C168.572 181.434 168.141 181.646 167.812 182.072C167.484 182.498 167.32 183.107 167.32 183.9ZM175.131 184.064L174.451 184.773V187H173.367V178H174.451V183.443L175.031 182.746L177.006 180.66H178.324L175.857 183.309L178.611 187H177.34L175.131 184.064Z" fill="#192B4D"/>
<path d="M76.6464 60.3536C76.8417 60.5488 77.1583 60.5488 77.3536 60.3536L80.5355 57.1716C80.7308 56.9763 80.7308 56.6597 80.5355 56.4645C80.3403 56.2692 80.0237 56.2692 79.8284 56.4645L77 59.2929L74.1716 56.4645C73.9763 56.2692 73.6597 56.2692 73.4645 56.4645C73.2692 56.6597 73.2692 56.9763 73.4645 57.1716L76.6464 60.3536ZM76.5 27L76.5 60L77.5 60L77.5 27L76.5 27Z" fill="#FF9900"/>
<path d="M115 118.5C115.276 118.5 115.5 118.276 115.5 118L115.5 113.5C115.5 113.224 115.276 113 115 113C114.724 113 114.5 113.224 114.5 113.5V117.5H110.5C110.224 117.5 110 117.724 110 118C110 118.276 110.224 118.5 110.5 118.5L115 118.5ZM76.6464 80.3536L114.646 118.354L115.354 117.646L77.3536 79.6464L76.6464 80.3536Z" fill="#FF9900"/>
<path d="M36.5002 117.987C36.4931 118.263 36.7111 118.493 36.9872 118.5L41.4857 118.615C41.7618 118.622 41.9913 118.404 41.9984 118.128C42.0054 117.852 41.7874 117.623 41.5113 117.616L37.5126 117.513L37.6152 113.514C37.6223 113.238 37.4042 113.009 37.1282 113.002C36.8521 112.995 36.6226 113.213 36.6155 113.489L36.5002 117.987ZM76.6556 79.6375L36.6556 117.638L37.3444 118.363L77.3444 80.3625L76.6556 79.6375Z" fill="#FF9900"/>
<path d="M154 173.5C154.276 173.5 154.5 173.276 154.5 173L154.5 168.5C154.5 168.224 154.276 168 154 168C153.724 168 153.5 168.224 153.5 168.5V172.5H149.5C149.224 172.5 149 172.724 149 173C149 173.276 149.224 173.5 149.5 173.5L154 173.5ZM115.646 135.354L153.646 173.354L154.354 172.646L116.354 134.646L115.646 135.354Z" fill="#FF9900"/>
<path d="M75.5002 172.987C75.4931 173.263 75.7111 173.493 75.9872 173.5L80.4857 173.615C80.7618 173.622 80.9913 173.404 80.9984 173.128C81.0054 172.852 80.7874 172.623 80.5113 172.616L76.5126 172.513L76.6152 168.514C76.6223 168.238 76.4042 168.009 76.1282 168.002C75.8521 167.995 75.6226 168.213 75.6155 168.489L75.5002 172.987ZM115.656 134.638L75.6556 172.638L76.3444 173.363L116.344 135.362L115.656 134.638Z" fill="#FF9900"/>
<rect x="0.5" y="0.5" width="199" height="199" stroke="white"/>
</svg>
