<svg version="1.1" xmlns="http://www.w3.org/2000/svg" viewBox="0 0 919.5 459" width="919.5" height="459">
  <!-- svg-source:excalidraw -->
  
  <defs>
    <style>
      @font-face {
        font-family: "Virgil";
        src: url("https://excalidraw.com/FG_Virgil.woff2");
      }
      @font-face {
        font-family: "Cascadia";
        src: url("https://excalidraw.com/Cascadia.woff2");
      }
    </style>
  </defs>
  <rect x="0" y="0" width="919.5" height="459" fill="#ffffff"></rect><g transform="translate(755.5 358) rotate(0 61.5 12)"><path d="M55.76261013325056 1.9806709489336942 C66.49375524584634 1.6613475035059322, 82.36784419991847 0.6286962956690622, 92.22850719556106 1.5823913009772284 C102.08917019120366 2.5360863062853944, 110.04386570844346 5.810801712920179, 114.92658810710614 7.702840980782692 C119.80931050576882 9.594880248645204, 122.86513088045979 10.631271128769871, 121.52484158753718 12.934626908152303 C120.18455229461458 15.237982687534736, 114.47435596258029 19.516336884070647, 106.88485234957048 21.52297565707729 C99.29534873656067 23.52961443008393, 87.05882521877149 24.626501414423526, 75.98781990947836 24.974459546192165 C64.91681460018523 25.322417677960804, 51.24764141240647 24.80394010842816, 40.45882049381174 23.610724447689115 C29.669999575217012 22.41750878695007, 17.880209419209365 19.612801276942566, 11.254894397909993 17.815165581757885 C4.629579376610622 16.017529886573204, 1.361902898572351 14.948257113597162, 0.70693036601552 12.824910276581036 C0.051957833458689096 10.70156343956491, 1.3566078773654047 6.8368052963961885, 7.325059202569008 5.075084559661134 C13.29351052777261 3.313363822926079, 23.75455458136637 2.75705850474414, 36.51763831723714 2.25458585617071 C49.280722053107915 1.7521132075972798, 72.39165166278595 1.4489590864777133, 83.90356161779366 2.0602486682205523 C95.41547157280137 2.6715382499633913, 106.02805498897226 6.208478877762646, 105.58909804728341 5.922323346627744 M23.389726991560835 0.9897996729183873 C30.963382329622156 -0.6757027212366158, 44.86776157942319 1.7255055217644772, 55.271859873109214 1.7019253039265116 C65.67595816679524 1.678345086088546, 75.88232984371754 -0.18405294138563089, 85.81431675367699 0.8483183658905933 C95.74630366363644 1.8806896731668175, 108.81028315825 6.3920579974024285, 114.86378133286593 7.896153147583856 C120.91727950748185 9.400248297765284, 123.37110319480712 7.8218348326805565, 122.13530580137254 9.872889266979158 C120.89950840793796 11.923943701277759, 114.8270300343632 18.05201266719178, 107.44899697225847 20.202479753375464 C100.07096391015374 22.35294683955915, 87.87206513213447 22.645068842026678, 77.86710742874416 22.775691784081275 C67.86214972535386 22.90631472613587, 58.076499365209905 21.869518594773005, 47.419250751916636 20.98621740570305 C36.762002138623366 20.102916216633098, 22.150239519299564 18.568387624775873, 13.923615748984552 17.47588464966154 C5.696991978669541 16.38338167454721, -0.9700781436362954 16.60617715289299, -1.9404918699734353 14.43119955501707 C-2.910905596310575 12.25622195714115, 4.08754512471585 6.579496608624496, 8.101133390961714 4.426019062406021 C12.114721657207578 2.2725415161875455, 19.794616802014538 1.7354197031011922, 22.141037727501747 1.5103342777062174 C24.487458652988956 1.2852488523112426, 21.622980053227355 2.895078744239498, 22.17965894388496 3.0755065100361723" stroke="none" stroke-width="0" fill="#fd7e14"></path><path d="M17.232653833542727 2.079668228825886 C24.679301942913224 0.9087567902642537, 39.51841021631464 1.7123186809933806, 50.70437981703945 1.2660560194424395 C61.89034941776426 0.8197933578914984, 74.23658895295998 -1.4495483529658144, 84.3484714378916 -0.5979077404797604 C94.46035392282323 0.2537328720062938, 104.67200426207634 4.096351463948796, 111.37567472662923 6.375899694358765 C118.07934519118211 8.655447924768733, 124.51851924534337 11.019817063788146, 124.5704942252089 13.079381641980053 C124.62246920507444 15.13894622017196, 118.64312030401754 16.834121838526777, 111.68752460582246 18.733287163510205 C104.73192890762738 20.632452488493634, 93.20956862468759 23.43971424500036, 82.83692003603845 24.474373591880628 C72.46427144738931 25.509032938760896, 60.04922448125827 25.420991845084824, 49.45163307392765 24.941243244791817 C38.854041666597034 24.46149464449881, 27.443404413374587 23.48478892464167, 19.251371592054753 21.595881990122585 C11.059338770734918 19.7069750556035, 2.9151538698274138 16.161044596417007, 0.2994361460086452 13.607801637677309 C-2.3162815778101233 11.054558678937612, -1.4985792617179143 8.386385688096505, 3.5570652491421413 6.2764242376844015 C8.612709760002197 4.166462787272298, 24.115892908824748 1.8908962549581636, 30.63330321116898 0.9480329352046901 C37.15071351351321 0.005169615451216525, 42.062773108102604 0.22155622611253695, 42.66152706320753 0.6192443191635597 M92.52810502539829 -0.2615658623705457 C102.02224679774267 -0.1601599888997362, 110.56261962170603 1.9090629446801, 115.12476236034254 4.559245093470308 C119.68690509897905 7.2094272422605155, 121.22408086677828 12.853030006193167, 119.90096145721733 15.6395270303707 C118.57784204765639 18.426024054548236, 114.48776600610368 20.26335987893637, 107.18604590297687 21.278227238535514 C99.88432579985006 22.293094598134658, 86.93955683861667 21.237784394368543, 76.09064083845645 21.728731187965558 C65.24172483829624 22.219677981562572, 52.478661510756204 25.06253412874436, 42.09254990201554 24.22390800011761 C31.70643829327488 23.38528187149086, 20.473742140083747 19.059511250075353, 13.77397118601246 16.696974416205048 C7.074200231941173 14.334437582334745, 2.821945965701618 12.003908917339812, 1.8939241775878202 10.048686996895793 C0.9659023894740221 8.093465076451773, 3.325348023398873 6.06590496188442, 8.205840457329671 4.965642893540927 C13.086332891260469 3.865380825197435, 20.69137788997584 4.391895618241763, 31.17687878117261 3.4471145868348376 C41.66237967236938 2.5023335554279122, 60.806361410354945 -0.1787809910784285, 71.11884580451031 -0.7030432949006258 C81.43133019866569 -1.2273055987228232, 89.72673532839366 -0.11954511988755162, 93.05178514610483 0.3015407639016541 C96.37683496381601 0.7226266476908598, 91.60345148202708 1.7136395562619995, 91.06914471077735 1.8234720078346083" stroke="black" stroke-width="1" fill="none"></path></g><g transform="translate(752 248) rotate(0 63.5 61.5)"><path d="M3.646960962563753 2.452623914927244 L125.60899745300412 -1.0839460380375385 L123.8407978899777 121.15494711324573 L1.4521034844219685 121.48729653283954" stroke="none" stroke-width="0" fill="#fd7e14"></path><path d="M1.8019492141902447 -2.1094818226993084 C29.10291290832684 -0.7667605315707622, 61.96657115202398 -2.8817694818042217, 127.56958157941699 -1.7275799624621868 M-1.977912014350295 0.20915529690682888 C38.19606855073944 0.013117784243076969, 74.41807806175203 -0.9389669358916581, 127.21508931554854 -1.4236491564661264 M123.29003770276904 -3.590049635618925 C128.73459698008372 34.32258971249685, 128.9457801704295 59.29051546808333, 129.86658043786883 119.7043163664639 M125.98845958150923 -0.06754096783697605 C124.65186822300777 43.228267648536715, 125.91995578890666 86.30328730922193, 127.56243663467467 124.37879238091409 M127.08511395379901 119.53566383197904 C87.91626214878633 124.95288628241047, 56.61454825270921 125.85117536684498, 3.1520856134593487 125.32464729622006 M126.8023443762213 121.9653845783323 C96.34638689076527 119.37460448907689, 68.9991272965446 122.84146889613942, 0.4761081878095865 121.21833375655115 M-3.1732956655323505 120.84492908790708 C-1.89503763275221 77.91514904731883, -1.4721768911369146 37.61511830482631, 2.0460922233760357 -1.0822854153811932 M1.5707369986921549 124.04566386900842 C0.795351467821747 95.3345350409858, -0.17795882394537332 68.99624518696218, 0.6041142288595438 1.1979412790387869" stroke="transparent" stroke-width="1" fill="none"></path></g><g transform="translate(400.8769478145098 77.76371918327038) rotate(348.33398706459724 46.897586560116565 46.897586560116565)"><path d="M46.897586560116544 0 C54.97599315928377 -0.6558677177931062, 65.27293125052192 2.919850082136299, 72.40834424169726 7.5455234925301795 C79.54375723287261 12.17119690292406, 86.23890958224206 19.991176522977447, 89.71006450716861 27.75404046236328 C93.18121943209516 35.516904401749116, 94.54535044671353 45.72064356022793, 93.23527379125657 54.12270712884519 C91.92519713579962 62.52477069746246, 87.51934680204243 71.82883588832655, 81.8496045744269 78.16642187406688 C76.17986234681138 84.50400785980722, 67.42177727538412 89.91446921915178, 59.21682042556343 92.14822304328715 C51.01186357574274 94.38197686742251, 40.719784171034725 94.1578167315761, 32.619863475502754 91.56894481887906 C24.519942779970783 88.98007290618202, 16.005729315885937 83.19342315634285, 10.61729625237161 76.61499156710484 C5.228863188857281 70.03655997786683, 1.232281287718886 60.549490917993246, 0.28926509441678405 52.098355283451056 C-0.653751098885318 43.647219648908866, 1.1533477964458476 33.512549460796656, 4.959199092558997 25.908177759851686 C8.765050388672146 18.303806058906716, 16.134641626502756 10.790154704423191, 23.12437287109568 6.472125077781243 C30.114104115688605 2.1540954511392956, 42.93538427861306 0.9223622244298184, 46.89758656011654 0 C50.859788841620016 -0.9223622244298184, 46.897586560116544 0.1563252885337233, 46.897586560116544 0.9379517312023324 M46.897586560116544 0 C54.97599315928377 -0.6558677177931062, 65.27293125052192 2.919850082136299, 72.40834424169726 7.5455234925301795 C79.54375723287261 12.17119690292406, 86.23890958224206 19.991176522977447, 89.71006450716861 27.75404046236328 C93.18121943209516 35.516904401749116, 94.54535044671353 45.72064356022793, 93.23527379125657 54.12270712884519 C91.92519713579962 62.52477069746246, 87.51934680204243 71.82883588832655, 81.8496045744269 78.16642187406688 C76.17986234681138 84.50400785980722, 67.42177727538412 89.91446921915178, 59.21682042556343 92.14822304328715 C51.01186357574274 94.38197686742251, 40.719784171034725 94.1578167315761, 32.619863475502754 91.56894481887906 C24.519942779970783 88.98007290618202, 16.005729315885937 83.19342315634285, 10.61729625237161 76.61499156710484 C5.228863188857281 70.03655997786683, 1.232281287718886 60.549490917993246, 0.28926509441678405 52.098355283451056 C-0.653751098885318 43.647219648908866, 1.1533477964458476 33.512549460796656, 4.959199092558997 25.908177759851686 C8.765050388672146 18.303806058906716, 16.134641626502756 10.790154704423191, 23.12437287109568 6.472125077781243 C30.114104115688605 2.1540954511392956, 42.93538427861306 0.9223622244298184, 46.89758656011654 0 C50.859788841620016 -0.9223622244298184, 46.897586560116544 0.1563252885337233, 46.897586560116544 0.9379517312023324" stroke="none" stroke-width="0" fill="#77d5e6"></path><path d="M46.897586560116544 0 C54.97599315928377 -0.6558677177931062, 65.27293125052192 2.919850082136299, 72.40834424169726 7.5455234925301795 C79.54375723287261 12.17119690292406, 86.23890958224206 19.991176522977447, 89.71006450716861 27.75404046236328 C93.18121943209516 35.516904401749116, 94.54535044671353 45.72064356022793, 93.23527379125657 54.12270712884519 C91.92519713579962 62.52477069746246, 87.51934680204243 71.82883588832655, 81.8496045744269 78.16642187406688 C76.17986234681138 84.50400785980722, 67.42177727538412 89.91446921915178, 59.21682042556343 92.14822304328715 C51.01186357574274 94.38197686742251, 40.719784171034725 94.1578167315761, 32.619863475502754 91.56894481887906 C24.519942779970783 88.98007290618202, 16.005729315885937 83.19342315634285, 10.61729625237161 76.61499156710484 C5.228863188857281 70.03655997786683, 1.232281287718886 60.549490917993246, 0.28926509441678405 52.098355283451056 C-0.653751098885318 43.647219648908866, 1.1533477964458476 33.512549460796656, 4.959199092558997 25.908177759851686 C8.765050388672146 18.303806058906716, 16.134641626502756 10.790154704423191, 23.12437287109568 6.472125077781243 C30.114104115688605 2.1540954511392956, 42.93538427861306 0.9223622244298184, 46.89758656011654 0 C50.859788841620016 -0.9223622244298184, 46.897586560116544 0.1563252885337233, 46.897586560116544 0.9379517312023324 M46.897586560116544 0 C54.97599315928377 -0.6558677177931062, 65.27293125052192 2.919850082136299, 72.40834424169726 7.5455234925301795 C79.54375723287261 12.17119690292406, 86.23890958224206 19.991176522977447, 89.71006450716861 27.75404046236328 C93.18121943209516 35.516904401749116, 94.54535044671353 45.72064356022793, 93.23527379125657 54.12270712884519 C91.92519713579962 62.52477069746246, 87.51934680204243 71.82883588832655, 81.8496045744269 78.16642187406688 C76.17986234681138 84.50400785980722, 67.42177727538412 89.91446921915178, 59.21682042556343 92.14822304328715 C51.01186357574274 94.38197686742251, 40.719784171034725 94.1578167315761, 32.619863475502754 91.56894481887906 C24.519942779970783 88.98007290618202, 16.005729315885937 83.19342315634285, 10.61729625237161 76.61499156710484 C5.228863188857281 70.03655997786683, 1.232281287718886 60.549490917993246, 0.28926509441678405 52.098355283451056 C-0.653751098885318 43.647219648908866, 1.1533477964458476 33.512549460796656, 4.959199092558997 25.908177759851686 C8.765050388672146 18.303806058906716, 16.134641626502756 10.790154704423191, 23.12437287109568 6.472125077781243 C30.114104115688605 2.1540954511392956, 42.93538427861306 0.9223622244298184, 46.89758656011654 0 C50.859788841620016 -0.9223622244298184, 46.897586560116544 0.1563252885337233, 46.897586560116544 0.9379517312023324" stroke="transparent" stroke-width="1" fill="none"></path></g><g transform="translate(451.8058876380685 86.71076308096883) rotate(348.33398706459724 46.897586560116565 46.897586560116565)"><path d="M46.897586560116544 0 C54.97599315928377 -0.6558677177931062, 65.27293125052192 2.919850082136299, 72.40834424169726 7.5455234925301795 C79.54375723287261 12.17119690292406, 86.23890958224206 19.991176522977447, 89.71006450716861 27.75404046236328 C93.18121943209516 35.516904401749116, 94.54535044671353 45.72064356022793, 93.23527379125657 54.12270712884519 C91.92519713579962 62.52477069746246, 87.51934680204243 71.82883588832655, 81.8496045744269 78.16642187406688 C76.17986234681138 84.50400785980722, 67.42177727538412 89.91446921915178, 59.21682042556343 92.14822304328715 C51.01186357574274 94.38197686742251, 40.719784171034725 94.1578167315761, 32.619863475502754 91.56894481887906 C24.519942779970783 88.98007290618202, 16.005729315885937 83.19342315634285, 10.61729625237161 76.61499156710484 C5.228863188857281 70.03655997786683, 1.232281287718886 60.549490917993246, 0.28926509441678405 52.098355283451056 C-0.653751098885318 43.647219648908866, 1.1533477964458476 33.512549460796656, 4.959199092558997 25.908177759851686 C8.765050388672146 18.303806058906716, 16.134641626502756 10.790154704423191, 23.12437287109568 6.472125077781243 C30.114104115688605 2.1540954511392956, 42.93538427861306 0.9223622244298184, 46.89758656011654 0 C50.859788841620016 -0.9223622244298184, 46.897586560116544 0.1563252885337233, 46.897586560116544 0.9379517312023324 M46.897586560116544 0 C54.97599315928377 -0.6558677177931062, 65.27293125052192 2.919850082136299, 72.40834424169726 7.5455234925301795 C79.54375723287261 12.17119690292406, 86.23890958224206 19.991176522977447, 89.71006450716861 27.75404046236328 C93.18121943209516 35.516904401749116, 94.54535044671353 45.72064356022793, 93.23527379125657 54.12270712884519 C91.92519713579962 62.52477069746246, 87.51934680204243 71.82883588832655, 81.8496045744269 78.16642187406688 C76.17986234681138 84.50400785980722, 67.42177727538412 89.91446921915178, 59.21682042556343 92.14822304328715 C51.01186357574274 94.38197686742251, 40.719784171034725 94.1578167315761, 32.619863475502754 91.56894481887906 C24.519942779970783 88.98007290618202, 16.005729315885937 83.19342315634285, 10.61729625237161 76.61499156710484 C5.228863188857281 70.03655997786683, 1.232281287718886 60.549490917993246, 0.28926509441678405 52.098355283451056 C-0.653751098885318 43.647219648908866, 1.1533477964458476 33.512549460796656, 4.959199092558997 25.908177759851686 C8.765050388672146 18.303806058906716, 16.134641626502756 10.790154704423191, 23.12437287109568 6.472125077781243 C30.114104115688605 2.1540954511392956, 42.93538427861306 0.9223622244298184, 46.89758656011654 0 C50.859788841620016 -0.9223622244298184, 46.897586560116544 0.1563252885337233, 46.897586560116544 0.9379517312023324" stroke="none" stroke-width="0" fill="#77d5e6"></path><path d="M46.897586560116544 0 C54.97599315928377 -0.6558677177931062, 65.27293125052192 2.919850082136299, 72.40834424169726 7.5455234925301795 C79.54375723287261 12.17119690292406, 86.23890958224206 19.991176522977447, 89.71006450716861 27.75404046236328 C93.18121943209516 35.516904401749116, 94.54535044671353 45.72064356022793, 93.23527379125657 54.12270712884519 C91.92519713579962 62.52477069746246, 87.51934680204243 71.82883588832655, 81.8496045744269 78.16642187406688 C76.17986234681138 84.50400785980722, 67.42177727538412 89.91446921915178, 59.21682042556343 92.14822304328715 C51.01186357574274 94.38197686742251, 40.719784171034725 94.1578167315761, 32.619863475502754 91.56894481887906 C24.519942779970783 88.98007290618202, 16.005729315885937 83.19342315634285, 10.61729625237161 76.61499156710484 C5.228863188857281 70.03655997786683, 1.232281287718886 60.549490917993246, 0.28926509441678405 52.098355283451056 C-0.653751098885318 43.647219648908866, 1.1533477964458476 33.512549460796656, 4.959199092558997 25.908177759851686 C8.765050388672146 18.303806058906716, 16.134641626502756 10.790154704423191, 23.12437287109568 6.472125077781243 C30.114104115688605 2.1540954511392956, 42.93538427861306 0.9223622244298184, 46.89758656011654 0 C50.859788841620016 -0.9223622244298184, 46.897586560116544 0.1563252885337233, 46.897586560116544 0.9379517312023324 M46.897586560116544 0 C54.97599315928377 -0.6558677177931062, 65.27293125052192 2.919850082136299, 72.40834424169726 7.5455234925301795 C79.54375723287261 12.17119690292406, 86.23890958224206 19.991176522977447, 89.71006450716861 27.75404046236328 C93.18121943209516 35.516904401749116, 94.54535044671353 45.72064356022793, 93.23527379125657 54.12270712884519 C91.92519713579962 62.52477069746246, 87.51934680204243 71.82883588832655, 81.8496045744269 78.16642187406688 C76.17986234681138 84.50400785980722, 67.42177727538412 89.91446921915178, 59.21682042556343 92.14822304328715 C51.01186357574274 94.38197686742251, 40.719784171034725 94.1578167315761, 32.619863475502754 91.56894481887906 C24.519942779970783 88.98007290618202, 16.005729315885937 83.19342315634285, 10.61729625237161 76.61499156710484 C5.228863188857281 70.03655997786683, 1.232281287718886 60.549490917993246, 0.28926509441678405 52.098355283451056 C-0.653751098885318 43.647219648908866, 1.1533477964458476 33.512549460796656, 4.959199092558997 25.908177759851686 C8.765050388672146 18.303806058906716, 16.134641626502756 10.790154704423191, 23.12437287109568 6.472125077781243 C30.114104115688605 2.1540954511392956, 42.93538427861306 0.9223622244298184, 46.89758656011654 0 C50.859788841620016 -0.9223622244298184, 46.897586560116544 0.1563252885337233, 46.897586560116544 0.9379517312023324" stroke="transparent" stroke-width="1" fill="none"></path></g><g transform="translate(487.2908144367009 125.49916660178894) rotate(348.33398706459724 46.897586560116565 46.897586560116565)"><path d="M46.897586560116544 0 C54.97599315928377 -0.6558677177931062, 65.27293125052192 2.919850082136299, 72.40834424169726 7.5455234925301795 C79.54375723287261 12.17119690292406, 86.23890958224206 19.991176522977447, 89.71006450716861 27.75404046236328 C93.18121943209516 35.516904401749116, 94.54535044671353 45.72064356022793, 93.23527379125657 54.12270712884519 C91.92519713579962 62.52477069746246, 87.51934680204243 71.82883588832655, 81.8496045744269 78.16642187406688 C76.17986234681138 84.50400785980722, 67.42177727538412 89.91446921915178, 59.21682042556343 92.14822304328715 C51.01186357574274 94.38197686742251, 40.719784171034725 94.1578167315761, 32.619863475502754 91.56894481887906 C24.519942779970783 88.98007290618202, 16.005729315885937 83.19342315634285, 10.61729625237161 76.61499156710484 C5.228863188857281 70.03655997786683, 1.232281287718886 60.549490917993246, 0.28926509441678405 52.098355283451056 C-0.653751098885318 43.647219648908866, 1.1533477964458476 33.512549460796656, 4.959199092558997 25.908177759851686 C8.765050388672146 18.303806058906716, 16.134641626502756 10.790154704423191, 23.12437287109568 6.472125077781243 C30.114104115688605 2.1540954511392956, 42.93538427861306 0.9223622244298184, 46.89758656011654 0 C50.859788841620016 -0.9223622244298184, 46.897586560116544 0.1563252885337233, 46.897586560116544 0.9379517312023324 M46.897586560116544 0 C54.97599315928377 -0.6558677177931062, 65.27293125052192 2.919850082136299, 72.40834424169726 7.5455234925301795 C79.54375723287261 12.17119690292406, 86.23890958224206 19.991176522977447, 89.71006450716861 27.75404046236328 C93.18121943209516 35.516904401749116, 94.54535044671353 45.72064356022793, 93.23527379125657 54.12270712884519 C91.92519713579962 62.52477069746246, 87.51934680204243 71.82883588832655, 81.8496045744269 78.16642187406688 C76.17986234681138 84.50400785980722, 67.42177727538412 89.91446921915178, 59.21682042556343 92.14822304328715 C51.01186357574274 94.38197686742251, 40.719784171034725 94.1578167315761, 32.619863475502754 91.56894481887906 C24.519942779970783 88.98007290618202, 16.005729315885937 83.19342315634285, 10.61729625237161 76.61499156710484 C5.228863188857281 70.03655997786683, 1.232281287718886 60.549490917993246, 0.28926509441678405 52.098355283451056 C-0.653751098885318 43.647219648908866, 1.1533477964458476 33.512549460796656, 4.959199092558997 25.908177759851686 C8.765050388672146 18.303806058906716, 16.134641626502756 10.790154704423191, 23.12437287109568 6.472125077781243 C30.114104115688605 2.1540954511392956, 42.93538427861306 0.9223622244298184, 46.89758656011654 0 C50.859788841620016 -0.9223622244298184, 46.897586560116544 0.1563252885337233, 46.897586560116544 0.9379517312023324" stroke="none" stroke-width="0" fill="#77d5e6"></path><path d="M46.897586560116544 0 C54.97599315928377 -0.6558677177931062, 65.27293125052192 2.919850082136299, 72.40834424169726 7.5455234925301795 C79.54375723287261 12.17119690292406, 86.23890958224206 19.991176522977447, 89.71006450716861 27.75404046236328 C93.18121943209516 35.516904401749116, 94.54535044671353 45.72064356022793, 93.23527379125657 54.12270712884519 C91.92519713579962 62.52477069746246, 87.51934680204243 71.82883588832655, 81.8496045744269 78.16642187406688 C76.17986234681138 84.50400785980722, 67.42177727538412 89.91446921915178, 59.21682042556343 92.14822304328715 C51.01186357574274 94.38197686742251, 40.719784171034725 94.1578167315761, 32.619863475502754 91.56894481887906 C24.519942779970783 88.98007290618202, 16.005729315885937 83.19342315634285, 10.61729625237161 76.61499156710484 C5.228863188857281 70.03655997786683, 1.232281287718886 60.549490917993246, 0.28926509441678405 52.098355283451056 C-0.653751098885318 43.647219648908866, 1.1533477964458476 33.512549460796656, 4.959199092558997 25.908177759851686 C8.765050388672146 18.303806058906716, 16.134641626502756 10.790154704423191, 23.12437287109568 6.472125077781243 C30.114104115688605 2.1540954511392956, 42.93538427861306 0.9223622244298184, 46.89758656011654 0 C50.859788841620016 -0.9223622244298184, 46.897586560116544 0.1563252885337233, 46.897586560116544 0.9379517312023324 M46.897586560116544 0 C54.97599315928377 -0.6558677177931062, 65.27293125052192 2.919850082136299, 72.40834424169726 7.5455234925301795 C79.54375723287261 12.17119690292406, 86.23890958224206 19.991176522977447, 89.71006450716861 27.75404046236328 C93.18121943209516 35.516904401749116, 94.54535044671353 45.72064356022793, 93.23527379125657 54.12270712884519 C91.92519713579962 62.52477069746246, 87.51934680204243 71.82883588832655, 81.8496045744269 78.16642187406688 C76.17986234681138 84.50400785980722, 67.42177727538412 89.91446921915178, 59.21682042556343 92.14822304328715 C51.01186357574274 94.38197686742251, 40.719784171034725 94.1578167315761, 32.619863475502754 91.56894481887906 C24.519942779970783 88.98007290618202, 16.005729315885937 83.19342315634285, 10.61729625237161 76.61499156710484 C5.228863188857281 70.03655997786683, 1.232281287718886 60.549490917993246, 0.28926509441678405 52.098355283451056 C-0.653751098885318 43.647219648908866, 1.1533477964458476 33.512549460796656, 4.959199092558997 25.908177759851686 C8.765050388672146 18.303806058906716, 16.134641626502756 10.790154704423191, 23.12437287109568 6.472125077781243 C30.114104115688605 2.1540954511392956, 42.93538427861306 0.9223622244298184, 46.89758656011654 0 C50.859788841620016 -0.9223622244298184, 46.897586560116544 0.1563252885337233, 46.897586560116544 0.9379517312023324" stroke="transparent" stroke-width="1" fill="none"></path></g><g transform="translate(352.5519123352225 125.8678845174685) rotate(348.33398706459724 46.897586560116565 46.897586560116565)"><path d="M46.897586560116544 0 C54.97599315928377 -0.6558677177931062, 65.27293125052192 2.919850082136299, 72.40834424169726 7.5455234925301795 C79.54375723287261 12.17119690292406, 86.23890958224206 19.991176522977447, 89.71006450716861 27.75404046236328 C93.18121943209516 35.516904401749116, 94.54535044671353 45.72064356022793, 93.23527379125657 54.12270712884519 C91.92519713579962 62.52477069746246, 87.51934680204243 71.82883588832655, 81.8496045744269 78.16642187406688 C76.17986234681138 84.50400785980722, 67.42177727538412 89.91446921915178, 59.21682042556343 92.14822304328715 C51.01186357574274 94.38197686742251, 40.719784171034725 94.1578167315761, 32.619863475502754 91.56894481887906 C24.519942779970783 88.98007290618202, 16.005729315885937 83.19342315634285, 10.61729625237161 76.61499156710484 C5.228863188857281 70.03655997786683, 1.232281287718886 60.549490917993246, 0.28926509441678405 52.098355283451056 C-0.653751098885318 43.647219648908866, 1.1533477964458476 33.512549460796656, 4.959199092558997 25.908177759851686 C8.765050388672146 18.303806058906716, 16.134641626502756 10.790154704423191, 23.12437287109568 6.472125077781243 C30.114104115688605 2.1540954511392956, 42.93538427861306 0.9223622244298184, 46.89758656011654 0 C50.859788841620016 -0.9223622244298184, 46.897586560116544 0.1563252885337233, 46.897586560116544 0.9379517312023324 M46.897586560116544 0 C54.97599315928377 -0.6558677177931062, 65.27293125052192 2.919850082136299, 72.40834424169726 7.5455234925301795 C79.54375723287261 12.17119690292406, 86.23890958224206 19.991176522977447, 89.71006450716861 27.75404046236328 C93.18121943209516 35.516904401749116, 94.54535044671353 45.72064356022793, 93.23527379125657 54.12270712884519 C91.92519713579962 62.52477069746246, 87.51934680204243 71.82883588832655, 81.8496045744269 78.16642187406688 C76.17986234681138 84.50400785980722, 67.42177727538412 89.91446921915178, 59.21682042556343 92.14822304328715 C51.01186357574274 94.38197686742251, 40.719784171034725 94.1578167315761, 32.619863475502754 91.56894481887906 C24.519942779970783 88.98007290618202, 16.005729315885937 83.19342315634285, 10.61729625237161 76.61499156710484 C5.228863188857281 70.03655997786683, 1.232281287718886 60.549490917993246, 0.28926509441678405 52.098355283451056 C-0.653751098885318 43.647219648908866, 1.1533477964458476 33.512549460796656, 4.959199092558997 25.908177759851686 C8.765050388672146 18.303806058906716, 16.134641626502756 10.790154704423191, 23.12437287109568 6.472125077781243 C30.114104115688605 2.1540954511392956, 42.93538427861306 0.9223622244298184, 46.89758656011654 0 C50.859788841620016 -0.9223622244298184, 46.897586560116544 0.1563252885337233, 46.897586560116544 0.9379517312023324" stroke="none" stroke-width="0" fill="#77d5e6"></path><path d="M46.897586560116544 0 C54.97599315928377 -0.6558677177931062, 65.27293125052192 2.919850082136299, 72.40834424169726 7.5455234925301795 C79.54375723287261 12.17119690292406, 86.23890958224206 19.991176522977447, 89.71006450716861 27.75404046236328 C93.18121943209516 35.516904401749116, 94.54535044671353 45.72064356022793, 93.23527379125657 54.12270712884519 C91.92519713579962 62.52477069746246, 87.51934680204243 71.82883588832655, 81.8496045744269 78.16642187406688 C76.17986234681138 84.50400785980722, 67.42177727538412 89.91446921915178, 59.21682042556343 92.14822304328715 C51.01186357574274 94.38197686742251, 40.719784171034725 94.1578167315761, 32.619863475502754 91.56894481887906 C24.519942779970783 88.98007290618202, 16.005729315885937 83.19342315634285, 10.61729625237161 76.61499156710484 C5.228863188857281 70.03655997786683, 1.232281287718886 60.549490917993246, 0.28926509441678405 52.098355283451056 C-0.653751098885318 43.647219648908866, 1.1533477964458476 33.512549460796656, 4.959199092558997 25.908177759851686 C8.765050388672146 18.303806058906716, 16.134641626502756 10.790154704423191, 23.12437287109568 6.472125077781243 C30.114104115688605 2.1540954511392956, 42.93538427861306 0.9223622244298184, 46.89758656011654 0 C50.859788841620016 -0.9223622244298184, 46.897586560116544 0.1563252885337233, 46.897586560116544 0.9379517312023324 M46.897586560116544 0 C54.97599315928377 -0.6558677177931062, 65.27293125052192 2.919850082136299, 72.40834424169726 7.5455234925301795 C79.54375723287261 12.17119690292406, 86.23890958224206 19.991176522977447, 89.71006450716861 27.75404046236328 C93.18121943209516 35.516904401749116, 94.54535044671353 45.72064356022793, 93.23527379125657 54.12270712884519 C91.92519713579962 62.52477069746246, 87.51934680204243 71.82883588832655, 81.8496045744269 78.16642187406688 C76.17986234681138 84.50400785980722, 67.42177727538412 89.91446921915178, 59.21682042556343 92.14822304328715 C51.01186357574274 94.38197686742251, 40.719784171034725 94.1578167315761, 32.619863475502754 91.56894481887906 C24.519942779970783 88.98007290618202, 16.005729315885937 83.19342315634285, 10.61729625237161 76.61499156710484 C5.228863188857281 70.03655997786683, 1.232281287718886 60.549490917993246, 0.28926509441678405 52.098355283451056 C-0.653751098885318 43.647219648908866, 1.1533477964458476 33.512549460796656, 4.959199092558997 25.908177759851686 C8.765050388672146 18.303806058906716, 16.134641626502756 10.790154704423191, 23.12437287109568 6.472125077781243 C30.114104115688605 2.1540954511392956, 42.93538427861306 0.9223622244298184, 46.89758656011654 0 C50.859788841620016 -0.9223622244298184, 46.897586560116544 0.1563252885337233, 46.897586560116544 0.9379517312023324" stroke="transparent" stroke-width="1" fill="none"></path></g><g transform="translate(421.1067404922859 124.1604230693107) rotate(348.33398706459724 46.897586560116565 46.897586560116565)"><path d="M46.897586560116544 0 C54.97599315928377 -0.6558677177931062, 65.27293125052192 2.919850082136299, 72.40834424169726 7.5455234925301795 C79.54375723287261 12.17119690292406, 86.23890958224206 19.991176522977447, 89.71006450716861 27.75404046236328 C93.18121943209516 35.516904401749116, 94.54535044671353 45.72064356022793, 93.23527379125657 54.12270712884519 C91.92519713579962 62.52477069746246, 87.51934680204243 71.82883588832655, 81.8496045744269 78.16642187406688 C76.17986234681138 84.50400785980722, 67.42177727538412 89.91446921915178, 59.21682042556343 92.14822304328715 C51.01186357574274 94.38197686742251, 40.719784171034725 94.1578167315761, 32.619863475502754 91.56894481887906 C24.519942779970783 88.98007290618202, 16.005729315885937 83.19342315634285, 10.61729625237161 76.61499156710484 C5.228863188857281 70.03655997786683, 1.232281287718886 60.549490917993246, 0.28926509441678405 52.098355283451056 C-0.653751098885318 43.647219648908866, 1.1533477964458476 33.512549460796656, 4.959199092558997 25.908177759851686 C8.765050388672146 18.303806058906716, 16.134641626502756 10.790154704423191, 23.12437287109568 6.472125077781243 C30.114104115688605 2.1540954511392956, 42.93538427861306 0.9223622244298184, 46.89758656011654 0 C50.859788841620016 -0.9223622244298184, 46.897586560116544 0.1563252885337233, 46.897586560116544 0.9379517312023324 M46.897586560116544 0 C54.97599315928377 -0.6558677177931062, 65.27293125052192 2.919850082136299, 72.40834424169726 7.5455234925301795 C79.54375723287261 12.17119690292406, 86.23890958224206 19.991176522977447, 89.71006450716861 27.75404046236328 C93.18121943209516 35.516904401749116, 94.54535044671353 45.72064356022793, 93.23527379125657 54.12270712884519 C91.92519713579962 62.52477069746246, 87.51934680204243 71.82883588832655, 81.8496045744269 78.16642187406688 C76.17986234681138 84.50400785980722, 67.42177727538412 89.91446921915178, 59.21682042556343 92.14822304328715 C51.01186357574274 94.38197686742251, 40.719784171034725 94.1578167315761, 32.619863475502754 91.56894481887906 C24.519942779970783 88.98007290618202, 16.005729315885937 83.19342315634285, 10.61729625237161 76.61499156710484 C5.228863188857281 70.03655997786683, 1.232281287718886 60.549490917993246, 0.28926509441678405 52.098355283451056 C-0.653751098885318 43.647219648908866, 1.1533477964458476 33.512549460796656, 4.959199092558997 25.908177759851686 C8.765050388672146 18.303806058906716, 16.134641626502756 10.790154704423191, 23.12437287109568 6.472125077781243 C30.114104115688605 2.1540954511392956, 42.93538427861306 0.9223622244298184, 46.89758656011654 0 C50.859788841620016 -0.9223622244298184, 46.897586560116544 0.1563252885337233, 46.897586560116544 0.9379517312023324" stroke="none" stroke-width="0" fill="#77d5e6"></path><path d="M46.897586560116544 0 C54.97599315928377 -0.6558677177931062, 65.27293125052192 2.919850082136299, 72.40834424169726 7.5455234925301795 C79.54375723287261 12.17119690292406, 86.23890958224206 19.991176522977447, 89.71006450716861 27.75404046236328 C93.18121943209516 35.516904401749116, 94.54535044671353 45.72064356022793, 93.23527379125657 54.12270712884519 C91.92519713579962 62.52477069746246, 87.51934680204243 71.82883588832655, 81.8496045744269 78.16642187406688 C76.17986234681138 84.50400785980722, 67.42177727538412 89.91446921915178, 59.21682042556343 92.14822304328715 C51.01186357574274 94.38197686742251, 40.719784171034725 94.1578167315761, 32.619863475502754 91.56894481887906 C24.519942779970783 88.98007290618202, 16.005729315885937 83.19342315634285, 10.61729625237161 76.61499156710484 C5.228863188857281 70.03655997786683, 1.232281287718886 60.549490917993246, 0.28926509441678405 52.098355283451056 C-0.653751098885318 43.647219648908866, 1.1533477964458476 33.512549460796656, 4.959199092558997 25.908177759851686 C8.765050388672146 18.303806058906716, 16.134641626502756 10.790154704423191, 23.12437287109568 6.472125077781243 C30.114104115688605 2.1540954511392956, 42.93538427861306 0.9223622244298184, 46.89758656011654 0 C50.859788841620016 -0.9223622244298184, 46.897586560116544 0.1563252885337233, 46.897586560116544 0.9379517312023324 M46.897586560116544 0 C54.97599315928377 -0.6558677177931062, 65.27293125052192 2.919850082136299, 72.40834424169726 7.5455234925301795 C79.54375723287261 12.17119690292406, 86.23890958224206 19.991176522977447, 89.71006450716861 27.75404046236328 C93.18121943209516 35.516904401749116, 94.54535044671353 45.72064356022793, 93.23527379125657 54.12270712884519 C91.92519713579962 62.52477069746246, 87.51934680204243 71.82883588832655, 81.8496045744269 78.16642187406688 C76.17986234681138 84.50400785980722, 67.42177727538412 89.91446921915178, 59.21682042556343 92.14822304328715 C51.01186357574274 94.38197686742251, 40.719784171034725 94.1578167315761, 32.619863475502754 91.56894481887906 C24.519942779970783 88.98007290618202, 16.005729315885937 83.19342315634285, 10.61729625237161 76.61499156710484 C5.228863188857281 70.03655997786683, 1.232281287718886 60.549490917993246, 0.28926509441678405 52.098355283451056 C-0.653751098885318 43.647219648908866, 1.1533477964458476 33.512549460796656, 4.959199092558997 25.908177759851686 C8.765050388672146 18.303806058906716, 16.134641626502756 10.790154704423191, 23.12437287109568 6.472125077781243 C30.114104115688605 2.1540954511392956, 42.93538427861306 0.9223622244298184, 46.89758656011654 0 C50.859788841620016 -0.9223622244298184, 46.897586560116544 0.1563252885337233, 46.897586560116544 0.9379517312023324" stroke="transparent" stroke-width="1" fill="none"></path></g><g transform="translate(413 120) rotate(0 57 37.5)"><path d="M-0.7351209409534931 2.977059233933687 L115.62628121301532 -1.7795665375888348 L116.54366404935718 76.20732652023435 L-1.1415417678654194 75.63732336834073" stroke="none" stroke-width="0" fill="#fff"></path><path d="M2.1959655173122883 1.4514861814677715 C42.424646508507436 2.8810069543495773, 85.72875550873579 0.6104091388359665, 112.23124109581113 -3.761064101010561 M-1.7429286483675241 -0.9087853487581015 C38.99555343743414 -1.145121467523277, 79.72094920426608 -1.2027937893196943, 115.87405708990991 -1.3902129586786032 M112.85686956718564 3.950877618044615 C114.9947137082927 22.852506587747488, 114.12064485205337 49.03826565388591, 117.30924795940518 71.70824844762683 M115.13015917502344 1.9135375563055277 C114.90384896332398 21.1434818985872, 115.38485254580155 45.906440538354225, 115.4665415044874 74.42496311105788 M110.13064669445157 73.44658787176013 C88.19545464683324 77.37101148393005, 65.60546599887311 73.70466934468597, -0.3005312792956829 72.05461711809039 M112.49902603588998 73.48577844537795 C80.45605091620237 76.04905166503042, 48.33346115723252 74.72556742306799, 1.5361892338842154 76.3905088249594 M-3.975745093077421 73.80861205980182 C3.5213319887407124 44.21638814872131, 2.7379537452943623 18.572112693451345, -3.6341073624789715 2.003505777567625 M0.19906011782586575 75.8309475723654 C-1.814541018102318 54.34185501979664, 0.12288727751001716 34.89175821002572, -1.0913771633058786 -1.8670499380677938" stroke="black" stroke-width="1" fill="none"></path></g><g transform="translate(439.5 136.5) rotate(0 31.5 22)"><text x="31.5" y="35" font-family="Cascadia, Segoe UI Emoji" font-size="36px" fill="black" text-anchor="middle" style="white-space: pre;" direction="ltr">{ }</text></g><g transform="translate(754 240) rotate(0 62.5 16)"><path d="M91.4047522507036 0.18742906039432583 C101.16121699175308 0.6879105368342184, 110.43307598575856 3.677368200911078, 115.98333321183827 6.288143183793512 C121.53359043791798 8.898918166675946, 125.57653284211928 12.897839155932571, 124.70629560718187 15.852078957688928 C123.83605837224447 18.806318759445283, 117.65655640735064 21.159180395130065, 110.76190980221384 24.01358199433165 C103.86726319707704 26.867983593533232, 93.71936080041134 32.017119813565614, 83.33841597636106 32.97848855289842 C72.95747115231079 33.939857292231224, 59.348008311691906 30.99472960240161, 48.476240857912174 29.781794430328496 C37.60447340413244 28.568859258255383, 26.132947726972503 27.810225403760523, 18.10781125368269 25.70087752045974 C10.08267478039288 23.59152963715896, 2.6479271886835014 20.09802597961114, 0.3254220181733132 17.12570713052381 C-1.997083152336875 14.15338828143648, -0.4534407432079419 10.543116440346628, 4.172780230621562 7.866964425935759 C8.799001204451066 5.19081241152489, 18.021601301547243 2.209355367833677, 28.082747861150338 1.0687950440585965 C38.14389442075343 -0.07176527971648361, 50.463440010013116 0.35139936251976334, 64.53965958824013 1.0236024832852788 C78.61587916646714 1.6958056040507943, 102.98917939719637 2.809462581974997, 112.54006533051239 5.102013768651689 C122.09095126382842 7.394564955328382, 122.33601537104254 14.198052748070094, 121.84497518813627 14.778909603345433 M41.361446605680754 2.045695437563783 C51.45810304754207 1.693921068822492, 65.72182222913614 2.796732250612487, 76.92626219854903 3.0652821136828 C88.13070216796191 3.3338319767531126, 100.92101536240162 2.428520423825697, 108.58808642215806 3.65699461598566 C116.2551574819145 4.885468808145623, 121.17542661033511 7.2029912099902464, 122.92868855708764 10.436127266642579 C124.68195050384017 13.669263323294912, 123.43946732894037 20.39952286163406, 119.10765810267327 23.05581095589966 C114.77584887640617 25.712099050165257, 106.16428789732186 24.59399677619201, 96.93783319948504 26.37385583223616 C87.71137850164823 28.15371488828031, 74.87910938099526 32.95769862414117, 63.748929915652354 33.734965292164546 C52.61875045030944 34.51223196018792, 39.523628368061985 32.43914200860327, 30.15675640742758 31.03745584037641 C20.789884446793174 29.635769672149546, 12.155020308620166 28.531132928066533, 7.547698151845935 25.324848282803366 C2.9403759950717054 22.1185636375402, 1.190337927795922 15.462490633191965, 2.5128234667822014 11.799747968797403 C3.8353090057684804 8.137005304402841, 9.801355844479737 4.735757366340456, 15.482611385763612 3.348392296435998 C21.163866927047486 1.9610272265315398, 32.76917660137599 3.5371058648674722, 36.60035671448544 3.475557549370654 C40.4315368275949 3.414009233873836, 38.01377561785906 3.42225365479783, 38.46969206442033 2.979102403455089" stroke="none" stroke-width="0" fill="#fd7e14"></path><path d="M110.94586659402438 6.3113779251762185 C118.87811117766117 8.307736114539377, 123.93297812116201 12.36258095228238, 125.54908330413798 15.19201403387374 C127.16518848711395 18.0214471154651, 125.69899207570425 20.570308902033183, 120.64249769188021 23.287976414724376 C115.58600330805616 26.00564392741557, 105.0542422953267 30.30435537222018, 95.21011700119374 31.498019110020902 C85.36599170706077 32.691682847821625, 73.28617839026155 30.69014834427418, 61.57774592708239 30.449958841528705 C49.86931346390323 30.20976933878323, 34.58228078387006 31.368851884534042, 24.95952222211877 30.056882093548047 C15.336763660367483 28.744912302562053, 7.924845588246019 25.7371216966933, 3.8411945565746635 22.578140095612735 C-0.24245647509669244 19.41915849453217, -2.0006488863760232 14.271748824984714, 0.45761603209063395 11.102992487064649 C2.915880950557291 7.934236149144583, 10.420677570064312 5.3236019103113135, 18.590784067374607 3.565602068092346 C26.7608905646849 1.8076022258733786, 38.25602164518626 0.9407000589520145, 49.4782550159524 0.5549934337508429 C60.70048838671854 0.16928680854967126, 73.0999226119082 -1.557246006100892, 85.92418429197144 1.2513623168853165 C98.74844597203469 4.0599706398715245, 123.64411535953926 13.014744562285026, 126.42382509633185 17.406643371668093 C129.20353483312445 21.79854218105116, 103.86905979357554 27.583288452252678, 102.602442712727 27.602755173183716 M13.339753139326248 4.00798215446266 C20.097039482047382 1.5848736480680943, 36.209094077917726 0.8182700875885178, 47.162292452703056 -0.16758074587584382 C58.11549082748839 -1.1534315793402055, 68.26809091177776 -3.361782357457077, 79.05894338803824 -1.9071228463235101 C89.84979586429873 -0.4524633351899434, 104.1769286357109 6.139850076207583, 111.90740731026591 8.560376320925556 C119.63788598482093 10.980902565643529, 124.14338132380635 10.525269150925276, 125.44181543536837 12.61603462198433 C126.74024954693039 14.706800093043384, 124.9893505631208 18.61590846068581, 119.69801197963798 21.10496914727988 C114.40667339615517 23.594029833873954, 104.49996092691663 25.997960960658293, 93.69378393447153 27.55039874154876 C82.88760694202642 29.10283652243923, 66.56169115889726 30.32529603375458, 54.86095002496737 30.419595832622697 C43.160208891037485 30.513895631490815, 32.116189358846285 29.442157329451618, 23.489337130892174 28.116197534757475 C14.862484902938066 26.790237740063333, 6.678439092076456 25.04750349652758, 3.099836657242726 22.46383706445783 C-0.47876577759100414 19.880170632388083, -0.389540609469178 15.526312040539645, 2.0177225218897945 12.61419894233899 C4.424985653248767 9.702085844138336, 15.118954848069665 6.318970731594404, 17.543415445396562 4.991158475253908 C19.967876042723457 3.6633462189134116, 16.114798738088577 4.826466031650589, 16.564486105851174 4.647325404296016" stroke="black" stroke-width="1" fill="none"></path></g><g><g transform="translate(755 253) rotate(0 0.01617687102407217 62.193741202987724)"><path d="M0.9047081988304853 2.3694657463580366 C0.9452258985489607 23.199348856881258, 2.0600810489306847 103.70564626641573, 2.0810424488037826 123.20004620738328 M-2.0486887067556383 1.1874361985921862 C-2.3592095464468006 21.32931679983934, 0.6675727754831315 98.8721120129029, 0.972742243409157 118.84083160340786" stroke="black" stroke-width="1" fill="none"></path></g></g><g><g transform="translate(876 256) rotate(0 0.6103232540561976 59.85406179707496)"><path d="M-1.5631351094692945 0.3051308076828718 C-1.2293287099649508 20.240507948522765, 0.41258551068604 101.48185299249987, 0.9692176599055529 121.7056613009423 M2.7837816175818446 -1.9975377067923548 C2.9257633432745935 17.03567654122909, -0.4342774835228922 98.23825953314702, -0.742644573748112 118.16378060489893" stroke="black" stroke-width="1" fill="none"></path></g></g><g transform="translate(10 250) rotate(0 109 62)"><path d="M-0.3061177022755146 -0.6076065413653851 L216.22464175149798 -2.3180134408175945 L221.17319829389453 121.4548445828259 L-1.1971424110233784 120.7386774905026" stroke="none" stroke-width="0" fill="#ced4da"></path><path d="M0.7220267791468814 -1.5875262008878663 C85.73142079798038 5.657604674070683, 169.61489679154073 3.307517182470503, 217.57773084691692 1.8202427272901103 M-1.7320114762591101 -1.6552105035047433 C51.175350769552296 0.7697426275555256, 103.52865801656228 -1.478583765142691, 216.48286998691205 0.8264262321457244 M218.87913738563657 -3.159257937222719 C219.78163586713373 29.176343099400402, 218.77165697671472 58.57976563870907, 216.25191067531705 125.98020822927356 M216.6105451937765 1.627048784866929 C216.03910107433796 46.96776129752398, 216.13676572859288 90.69573615454138, 217.00784823857248 123.84232413209975 M215.69227615292934 125.98561485146647 C141.19632514052847 127.14979772034141, 69.91433151857714 127.3975251277189, 1.9286794318230345 122.40410792970243 M218.6218837838368 125.4520431871371 C137.15083043374594 129.12548806608578, 55.84266279183608 127.16628160678447, -1.031667220101688 125.0458888714158 M1.9759355671703815 120.38576288148761 C0.728013535067439 84.3266862217337, -4.4012356800585986 53.780499424040315, -0.39191461727023125 1.8895097486674786 M0.91517916880548 124.61365740932524 C0.594079056829214 87.03241984173656, -1.410913607031107 45.20380106382072, 0.5084165092557669 1.7733182851225138" stroke="black" stroke-width="1" fill="none"></path></g><g transform="translate(37 300) rotate(0 56.5 30)"><path d="M3.500375460833311 -1.3761301152408123 L109.82320721074939 -2.96472991630435 L114.52221007272601 58.6024205572903 L1.4427209608256817 61.58350001648067" stroke="none" stroke-width="0" fill="#fff"></path><path d="M-2.7317057959735394 1.8295225612819195 C39.42550435168668 0.8247254119254648, 79.30084270369261 -3.1239691748283804, 115.78054808452725 3.836588215082884 M-0.3393013123422861 1.5863519255071878 C43.85178415859119 -2.5517317323572932, 88.93011290039868 -0.6838383345492183, 112.89634249173105 0.3484183494001627 M114.16005228832364 -3.1159903295338154 C109.62358374334872 16.401578007265922, 113.20086605288088 28.902373120188706, 113.52507792785764 62.03665561601518 M114.85680553875864 1.860161418095231 C113.4009203761816 15.964145220816132, 114.05752401053905 35.983040293678634, 112.84694114886224 59.69619672931729 M110.4548445828259 58.80285758897661 C80.85406454252079 58.49400108685715, 56.15525059718638 63.19765787949784, 3.141514051705599 56.024789880961166 M114.0393530484289 58.6110007110983 C76.92895397385581 58.88087893249465, 40.11973859984427 58.08195943357421, 1.8493491169065237 61.93122219480573 M0.14791034534573555 63.780280184000716 C-2.3002598244696855 44.68194290436803, 0.8860236447304488 37.691588260233395, -3.2928730361163616 1.7256736271083355 M0.2683387752622366 60.98102068342267 C-1.491781673580408 35.85832006856798, 0.3327945254743101 13.988543419167392, 0.39129832945764065 0.3616612497717142" stroke="black" stroke-width="1" fill="none"></path></g><g transform="translate(32.5 262) rotate(0 85 13)"><path d="M3.967065680772066 -1.7725234515964985 L168.52046798542136 -2.4898757226765156 L173.20899068191642 23.189206790179007 L0.20096873119473457 22.961623501032584" stroke="none" stroke-width="0" fill="#868e96"></path><path d="M-3.01503698900342 -2.850496184080839 C42.892204278148704 4.927202997915447, 74.44014302454887 1.7481643540784715, 166.67875428125257 0.14791034534573555 M0.5455226842314005 0.9254905339330435 C65.41975426394491 3.6154434015974397, 136.12820863723752 3.3212585380300874, 171.39827781356865 0.2683387752622366 M171.34797139093274 3.9270117171108723 C170.48344312798227 9.798649387992917, 173.2012219299003 16.774523661658165, 166.82320721074933 23.035270083695643 M170.79175000824029 -1.4353522304445505 C167.9307988835498 8.514790658093988, 168.38659816514695 19.1913491807878, 169.83315908350045 24.42211965285241 M170.80788452550763 23.393930781632655 C137.26177605893457 23.143850353546433, 99.37174593098459 20.074545291252427, 1.2890521995723248 25.838725555688136 M168.27666484750802 26.888854062184684 C124.60891657229507 25.2903740229085, 76.04309128597374 26.212623638100915, -1.5146954711526632 26.134911989793174 M-3.1715524680912495 27.990812767297022 C2.813928327150643 17.849141438864166, -1.8569571165367962 13.300232103839512, 1.3955031149089336 2.3308597691357136 M1.4764024559408426 25.422950720414512 C1.1872980219498277 16.295469219796352, -1.7375827806815505 8.96850003302097, -0.06563497148454189 -0.26570853032171726" stroke="black" stroke-width="1" fill="none"></path></g><g><g transform="translate(46 314) rotate(0 44 0)"><path d="M0 0 C14.666666666666666 0, 73.33333333333333 0, 88 0 M0 0 C14.666666666666666 0, 73.33333333333333 0, 88 0" stroke="black" stroke-width="1" fill="none"></path></g></g><g><g transform="translate(45 330) rotate(0 44 0)"><path d="M0 0 C14.666666666666666 0, 73.33333333333333 0, 88 0 M0 0 C14.666666666666666 0, 73.33333333333333 0, 88 0" stroke="black" stroke-width="1" fill="none"></path></g></g><g><g transform="translate(48 344) rotate(0 28 0)"><path d="M0 0 C9.333333333333334 0, 46.666666666666664 0, 56 0 M0 0 C9.333333333333334 0, 46.666666666666664 0, 56 0" stroke="black" stroke-width="1" fill="none"></path></g></g><g transform="translate(164 300) rotate(0 23 17.5)"><path d="M-0.15892045572400093 0.75068174675107 L42.158597420901025 3.656104315072298 L49.81139285489913 38.74449883773921 L-1.2966034896671772 38.65295027568934" stroke="none" stroke-width="0" fill="#868e96"></path><path d="M-2.900834333151579 -2.1740955598652363 C9.623908506520085 -3.7315448847785593, 19.35103248022495 -1.1846988526359201, 45.374492514878476 -1.8718142993748188 M-1.813867712393403 -1.208344941958785 C11.08105481732636 1.996565456949174, 22.696289465576395 1.0472610550746317, 46.62401035986837 1.6040812078863382 M43.47619520500299 -2.581259299069643 C46.3832435357384 10.811738966498519, 45.54817614434283 13.330664203502227, 45.98307799175378 34.1577399484813 M45.3803565856069 1.192743832245469 C45.52906321594488 11.189964353572572, 45.903163722250575 19.252425734885026, 44.92727968655523 33.71774970926342 M48.20242594555017 36.3028176538646 C31.369673231057796 38.66004564289001, 12.63407704122363 36.01817860130218, -1.0472945086658 33.04677219316361 M47.62407085858282 34.52441465295849 C26.91809632834045 36.338236699290555, 9.553405596315855 36.48835475225, -1.8948267344385386 33.81870191730557 M-3.9026841036975384 32.53563041612504 C2.821744164545089 19.660998457577065, 1.9328361359424888 9.95111182983964, -1.9401357285678387 3.7082463018596172 M-1.1535867098718882 34.21592777408657 C-0.05373580241575826 25.255225021857754, -1.1196949579752982 11.178244574926783, -1.9229363445192575 1.9397137109190226" stroke="black" stroke-width="1" fill="none"></path></g><g transform="translate(22 404.5) rotate(0 95 22)"><text x="0" y="35" font-family="Cascadia, Segoe UI Emoji" font-size="36px" fill="black" text-anchor="start" style="white-space: pre;" direction="ltr">Front-end</text></g><g transform="translate(268 10) rotate(0 200.5 22)"><text x="0" y="35" font-family="Cascadia, Segoe UI Emoji" font-size="36px" fill="black" text-anchor="start" style="white-space: pre;" direction="ltr">Serverless Function</text></g><g transform="translate(740.5 405) rotate(0 84.5 22)"><text x="0" y="35" font-family="Cascadia, Segoe UI Emoji" font-size="36px" fill="black" text-anchor="start" style="white-space: pre;" direction="ltr">Database</text></g><g><g transform="translate(248 250) rotate(0 43.23889388780111 -27.594237490547812)"><path d="M0.13922276236116882 0.42196193598210807 C14.727807880813875 -8.452451900020241, 72.88822279510399 -44.530790868774055, 87.72461179234088 -53.66417191363871 M-1.246824016738683 -0.40211199296638367 C13.142747000089535 -9.616225344669074, 71.59092089358096 -46.80087928665802, 86.63198751969263 -55.61043691707775" stroke="black" stroke-width="1" fill="none"></path></g><g transform="translate(248 250) rotate(0 43.23889388780111 -27.594237490547812)"><path d="M68.68835240749763 -32.568503797612564 C74.52072954222697 -37.63034117919584, 79.22460847172412 -47.81119440944175, 88.50491279562935 -55.63444217553362 M67.20171930881338 -31.834810385107474 C75.3243488549077 -41.39903122768703, 82.38006375581443 -49.03478604988321, 86.47928648734465 -54.64196938628331" stroke="black" stroke-width="1" fill="none"></path></g><g transform="translate(248 250) rotate(0 43.23889388780111 -27.594237490547812)"><path d="M57.944803460186634 -50.05267259119759 C67.1122699960497 -49.60037289727635, 75.21209618659124 -54.25462449733435, 88.50491279562935 -55.63444217553362 M56.45817036150238 -49.3189791786925 C68.53612680440273 -52.62016972047077, 79.48217160325473 -53.92475921433939, 86.47928648734465 -54.64196938628331" stroke="black" stroke-width="1" fill="none"></path></g></g><g><g transform="translate(599 175) rotate(0 70.94108426906172 25.213507264722125)"><path d="M-0.2753882076591253 0.335828086361289 C23.394334122911097 8.535780374829967, 118.69397340752185 41.15702115359406, 142.1575567457825 49.62167566679418 M1.7808942539803683 -0.5334661136381329 C25.381699519287793 7.800828874477496, 118.86719057751819 42.643034047453355, 141.8172285736911 50.96048064308241" stroke="black" stroke-width="1" fill="none"></path></g><g transform="translate(599 175) rotate(0 70.94108426906172 25.213507264722125)"><path d="M112.37713480798979 52.782199407757254 C120.5352557747609 50.132148251081155, 132.38671844848744 50.96480039634774, 143.05939765026793 51.70397608319298 M112.4918498412006 50.19156752695981 C123.69703466757758 51.02236178436791, 133.4689064779873 51.81715836802128, 142.7134075521864 50.41595158969984" stroke="black" stroke-width="1" fill="none"></path></g><g transform="translate(599 175) rotate(0 70.94108426906172 25.213507264722125)"><path d="M119.46488339040583 33.52385517938967 C125.48216752285845 36.858474928234735, 135.12507429381304 43.692063665509565, 143.05939765026793 51.70397608319298 M119.57959842361664 30.933223298592225 C128.05809457128524 38.78234595050185, 135.25414048563718 46.5759999571868, 142.7134075521864 50.41595158969984" stroke="black" stroke-width="1" fill="none"></path></g></g><g><g transform="translate(722 259) rotate(0 -68.2718340947199 -28.393586227251205)"><path d="M1.1575567457824947 -0.37832433320581915 C-21.545526582623527 -9.580336486672362, -113.6318948612859 -45.73018246429662, -136.49388817809523 -54.87624483443797 M0.3061353079788387 -1.6225485534779729 C-22.5740880566525 -11.161249339313557, -114.8522585324136 -47.14495146982993, -137.70122493522243 -56.408848121296614" stroke="black" stroke-width="1" fill="none"></path></g><g transform="translate(722 259) rotate(0 -68.2718340947199 -28.393586227251205)"><path d="M-108.34421813101994 -56.367701524119184 C-114.15125054808843 -55.5187441349409, -123.09008621202545 -54.990696816694964, -136.4328353581764 -57.97557453205809 M-106.7357361045249 -55.33180058206926 C-117.69226896699118 -55.05744720470663, -126.46345027292679 -56.85347513051718, -138.66316076552496 -56.013312655035406" stroke="black" stroke-width="1" fill="none"></path></g><g transform="translate(722 259) rotate(0 -68.2718340947199 -28.393586227251205)"><path d="M-115.91552866494862 -37.29428391781014 C-119.67830030276176 -41.80267079967131, -126.51949694298428 -46.5589325726068, -136.4328353581764 -57.97557453205809 M-114.30704663845358 -36.25838297576022 C-122.91282911365187 -42.179952159268396, -129.2046234660597 -50.221977070719845, -138.66316076552496 -56.013312655035406" stroke="black" stroke-width="1" fill="none"></path></g></g><g><g transform="translate(352 216) rotate(0 -49.76116423802449 36.20671206404455)"><path d="M-0.49388817809522145 1.1237551655620337 C-17.35588149490456 13.144359462087355, -83.50440072876711 59.97242168250183, -100.01440315507352 71.7453014459461 M1.4476817990653217 0.6681226821430029 C-15.674879297881077 12.381411982545007, -84.04782998032248 58.489019854037714, -100.97001027511433 70.01400995628909" stroke="black" stroke-width="1" fill="none"></path></g><g transform="translate(352 216) rotate(0 -49.76116423802449 36.20671206404455)"><path d="M-81.51096254968687 45.68510195802539 C-89.19059284104664 56.01621900556902, -96.13662029822174 63.34199332014366, -100.42058414230124 71.36286697724834 M-83.53658885797157 46.677574747275706 C-86.36276335642809 50.88600925749232, -92.33362039794147 57.51008969634438, -100.0775183803402 69.49026259874925" stroke="black" stroke-width="1" fill="none"></path></g><g transform="translate(352 216) rotate(0 -49.76116423802449 36.20671206404455)"><path d="M-70.00244328495043 62.67551062641915 C-82.19121065621673 66.22319221270098, -93.69994090188472 66.81289707944912, -100.42058414230124 71.36286697724834 M-72.02806959323513 63.66798341566946 C-77.71181645094315 63.92747589977182, -86.37408959922159 66.57812947990081, -100.0775183803402 69.49026259874925" stroke="black" stroke-width="1" fill="none"></path></g></g></svg>